<svg width="35" height="36" viewBox="0 0 35 36" fill="none" xmlns="http://www.w3.org/2000/svg">
<path d="M30.625 23.4958H10.2083C9.82155 23.4958 9.45062 23.3424 9.17713 23.0694C8.90364 22.7964 8.74999 22.4261 8.74999 22.0401C8.74999 21.654 8.90364 21.2837 9.17713 21.0107C9.45062 20.7377 9.82155 20.5844 10.2083 20.5844H25.4333C26.4084 20.5844 27.3556 20.2593 28.1245 19.6606C28.8933 19.0619 29.4398 18.224 29.6771 17.2799L32.0833 7.8323C32.1379 7.61744 32.1427 7.39298 32.0972 7.17602C32.0517 6.95906 31.9572 6.75534 31.8208 6.58038C31.679 6.40094 31.4968 6.25736 31.2891 6.16125C31.0813 6.06515 30.8538 6.01923 30.625 6.02721H9.85832C9.55745 5.17773 9.00072 4.44194 8.26446 3.9207C7.5282 3.39947 6.64845 3.11832 5.74582 3.11578H4.37499C3.98822 3.11578 3.61728 3.26915 3.34379 3.54215C3.0703 3.81515 2.91666 4.18542 2.91666 4.5715C2.91666 4.95758 3.0703 5.32784 3.34379 5.60084C3.61728 5.87384 3.98822 6.02721 4.37499 6.02721H5.74582C6.07896 6.01752 6.40536 6.12203 6.67071 6.32332C6.93605 6.52462 7.12431 6.81057 7.20416 7.13355L7.29166 7.8323L9.81457 17.6729C8.65425 17.725 7.56219 18.2351 6.77864 19.091C5.99509 19.9468 5.58423 21.0784 5.63645 22.2366C5.68866 23.3948 6.19967 24.4849 7.05707 25.2671C7.91446 26.0492 9.048 26.4593 10.2083 26.4072H10.4708C10.231 27.0668 10.1539 27.7744 10.2461 28.4701C10.3384 29.1658 10.5972 29.829 11.0007 30.4037C11.4041 30.9783 11.9404 31.4474 12.564 31.7713C13.1877 32.0952 13.8803 32.2643 14.5833 32.2643C15.2863 32.2643 15.979 32.0952 16.6026 31.7713C17.2262 31.4474 17.7625 30.9783 18.166 30.4037C18.5695 29.829 18.8283 29.1658 18.9205 28.4701C19.0127 27.7744 18.9357 27.0668 18.6958 26.4072H22.1375C21.8976 27.0668 21.8206 27.7744 21.9128 28.4701C22.005 29.1658 22.2638 29.829 22.6673 30.4037C23.0708 30.9783 23.6071 31.4474 24.2307 31.7713C24.8544 32.0952 25.547 32.2643 26.25 32.2643C26.953 32.2643 27.6456 32.0952 28.2693 31.7713C28.8929 31.4474 29.4292 30.9783 29.8327 30.4037C30.2361 29.829 30.4949 29.1658 30.5872 28.4701C30.6794 27.7744 30.6023 27.0668 30.3625 26.4072H30.625C31.0118 26.4072 31.3827 26.2538 31.6562 25.9808C31.9297 25.7078 32.0833 25.3376 32.0833 24.9515C32.0833 24.5654 31.9297 24.1951 31.6562 23.9221C31.3827 23.6491 31.0118 23.4958 30.625 23.4958ZM28.7583 8.93864L26.8479 16.5666C26.7681 16.8896 26.5798 17.1755 26.3145 17.3768C26.0491 17.5781 25.7227 17.6826 25.3896 17.6729H12.8042L10.6167 8.93864H28.7583ZM14.5833 29.3186C14.2949 29.3186 14.0129 29.2333 13.7731 29.0733C13.5333 28.9133 13.3464 28.686 13.236 28.42C13.1256 28.154 13.0967 27.8613 13.153 27.5789C13.2093 27.2965 13.3482 27.0372 13.5521 26.8336C13.7561 26.63 14.0159 26.4913 14.2988 26.4352C14.5817 26.379 14.8749 26.4078 15.1414 26.518C15.4079 26.6282 15.6356 26.8148 15.7959 27.0542C15.9561 27.2936 16.0417 27.575 16.0417 27.8629C16.0417 28.249 15.888 28.6193 15.6145 28.8923C15.341 29.1653 14.9701 29.3186 14.5833 29.3186ZM26.25 29.3186C25.9616 29.3186 25.6796 29.2333 25.4398 29.0733C25.2 28.9133 25.013 28.686 24.9027 28.42C24.7923 28.154 24.7634 27.8613 24.8197 27.5789C24.8759 27.2965 25.0148 27.0372 25.2188 26.8336C25.4227 26.63 25.6826 26.4913 25.9655 26.4352C26.2484 26.379 26.5416 26.4078 26.8081 26.518C27.0745 26.6282 27.3023 26.8148 27.4626 27.0542C27.6228 27.2936 27.7083 27.575 27.7083 27.8629C27.7083 28.249 27.5547 28.6193 27.2812 28.8923C27.0077 29.1653 26.6368 29.3186 26.25 29.3186Z" fill="black"/>
</svg>
